<svg xmlns="http://www.w3.org/2000/svg" viewBox="-2 -2 67 56">
  <defs>
    <linearGradient id="l" x1="0" y1="0" x2="1" y2="1">
      <stop offset="0" stop-color="#ffa340"/>
      <stop offset=".55" stop-color="#ff4d6d"/>
      <stop offset="1" stop-color="#e8156b"/>
    </linearGradient>
    <linearGradient id="r" x1="0" y1="1" x2="1" y2="0">
      <stop offset="0" stop-color="#1e6fd0"/>
      <stop offset=".5" stop-color="#22d3ee"/>
      <stop offset="1" stop-color="#4ade80"/>
    </linearGradient>
  </defs>
  <polygon fill="url(#l)" points="0.5,7.3 16,16.5 17.5,29.5 25,34.3 25,16.5 31.2,0.5 31.2,50.8 10,36"/>
  <polygon fill="url(#r)" points="31.2,0.5 37.5,16.5 37.5,34.3 45,29.5 46.5,16.5 62,7.3 52.5,36 31.2,50.8"/>
  <polygon fill="#fff" fill-opacity=".14" points="0.5,7.3 16,16.5 17.5,29.5 25,34.3 31.2,38.5 31.2,50.8 10,36"/>
  <polygon fill="#000" fill-opacity=".12" points="31.2,0.5 37.5,16.5 37.5,34.3 31.2,38.5"/>
</svg>
